<svg width="21" height="21" viewBox="0 0 21 21" fill="none" xmlns="http://www.w3.org/2000/svg">
<path d="M8.01499 9.51125C7.92749 9.5025 7.82249 9.5025 7.72624 9.51125C5.64374 9.44125 3.98999 7.735 3.98999 5.635C3.98999 3.49125 5.72249 1.75 7.87499 1.75C10.0187 1.75 11.76 3.49125 11.76 5.635C11.7512 7.735 10.0975 9.44125 8.01499 9.51125Z" stroke="#524A9D" stroke-width="1.5" stroke-linecap="round" stroke-linejoin="round"/>
<path opacity="0.4" d="M14.3587 3.5C16.0562 3.5 17.4212 4.87375 17.4212 6.5625C17.4212 8.21625 16.1087 9.56375 14.4725 9.625C14.4025 9.61625 14.3237 9.61625 14.245 9.625" stroke="#524A9D" stroke-width="1.5" stroke-linecap="round" stroke-linejoin="round"/>
<path d="M3.64 12.74C1.5225 14.1575 1.5225 16.4675 3.64 17.8762C6.04625 19.4862 9.99251 19.4862 12.3988 17.8762C14.5163 16.4587 14.5163 14.1488 12.3988 12.74C10.0013 11.1388 6.055 11.1388 3.64 12.74Z" stroke="#524A9D" stroke-width="1.5" stroke-linecap="round" stroke-linejoin="round"/>
<path opacity="0.4" d="M16.0475 17.5C16.6775 17.3687 17.2725 17.115 17.7625 16.7387C19.1275 15.715 19.1275 14.0262 17.7625 13.0025C17.2812 12.635 16.695 12.39 16.0737 12.25" stroke="#524A9D" stroke-width="1.5" stroke-linecap="round" stroke-linejoin="round"/>
</svg>
